/* XPM */
static char * cloud_xpm[] = {
"24 24 5 1",
" 	c None",
"x	c #FFFFFFFFFFFF",
".	c #6E6E6E6E6E6E",
"X	c #000000000000",
"o	c #CCCCCCCCCCCC",
"                        ",
"                        ",
"                        ",
"                        ",
"                        ",
"         .....          ",
"        .xxxxxX         ",
"      ...xxxxxxX        ",
"     .xxxxxxxxxxX       ",
"    .xxxxoxxxoxx.XXX    ",
"    .xxxxxooxxo.xxxXX   ",
"  ..xxxoxxxoxoxxxxxxXX  ",
" ..xxxxoxxxxxxxoxxxoxX  ",
" .xxxxxoxxxxxxooxoxxxX  ",
" XxxxxxoxoXxxooXoxoxXXX ",
" Xxooooooooooo.XoooxXoX ",
" XXooxooXXoo..Xooo.Xo.X ",
"  XX....XXo..XX...XX.XX ",
"   XX..XXX.XXXX..XXXXX  ",
"    XXXX XXX XXXXX      ",
"                        ",
"                        ",
"                        ",
"                        "};
