/* XPM */
static char * sg_small_xpm[] = {
"18 18 152 2",
"  	c None",
". 	c #00003A",
"+ 	c #000074",
"@ 	c #000000",
"# 	c #010174",
"$ 	c #020274",
"% 	c #3333B9",
"& 	c #003FAE",
"* 	c #003F74",
"= 	c #616100",
"- 	c #C2C200",
"; 	c #616174",
"> 	c #007F74",
", 	c #008074",
"' 	c #018174",
") 	c #028174",
"! 	c #038274",
"~ 	c #0B4BB0",
"{ 	c #3636F4",
"] 	c #919100",
"^ 	c #D1D100",
"/ 	c #B0B03A",
"( 	c #7F7F74",
"_ 	c #91913A",
": 	c #0303E8",
"< 	c #0808E9",
"[ 	c #0747AF",
"} 	c #0F0FEB",
"| 	c #0C0CEA",
"1 	c #068675",
"2 	c #3939F4",
"3 	c #61613A",
"4 	c #3F3FAE",
"5 	c #1010EB",
"6 	c #0000E8",
"7 	c #0909EA",
"8 	c #4040AE",
"9 	c #4444AE",
"0 	c #0D0DEA",
"a 	c #0B0BEA",
"b 	c #1111EB",
"c 	c #098976",
"d 	c #3C3CF5",
"e 	c #A0A000",
"f 	c #101077",
"g 	c #090976",
"h 	c #0F4FB1",
"i 	c #1151B1",
"j 	c #1352B2",
"k 	c #0948AF",
"l 	c #1453B2",
"m 	c #0C8B76",
"n 	c #3F3FF6",
"o 	c #1212EB",
"p 	c #1717ED",
"q 	c #1353B2",
"r 	c #1C1CED",
"s 	c #0F8E77",
"t 	c #4141F6",
"u 	c #61A03A",
"v 	c #717177",
"w 	c #8F8F77",
"x 	c #E0E000",
"y 	c #0A8A76",
"z 	c #01C03A",
"A 	c #0D8D76",
"B 	c #07C63B",
"C 	c #108F77",
"D 	c #119177",
"E 	c #4444F7",
"F 	c #99993B",
"G 	c #0000AE",
"H 	c #1515EC",
"I 	c #030374",
"J 	c #B6B63B",
"K 	c #0D0D76",
"L 	c #1616EC",
"M 	c #2727F0",
"N 	c #149478",
"O 	c #4747F8",
"P 	c #307074",
"Q 	c #32323A",
"R 	c #050575",
"S 	c #3C3C76",
"T 	c #707000",
"U 	c #5151B5",
"V 	c #179679",
"W 	c #4A4AF8",
"X 	c #3131AE",
"Y 	c #77773B",
"Z 	c #B9B93C",
"` 	c #6060B5",
" .	c #2F2FF2",
"..	c #6363B6",
"+.	c #BCBC3C",
"@.	c #599979",
"#.	c #4C4CF9",
"$.	c #0949AF",
"%.	c #69A83B",
"&.	c #78B83B",
"*.	c #87C73B",
"=.	c #0F4EB1",
"-.	c #2323EF",
";.	c #2525F0",
">.	c #2828F1",
",.	c #2A2AF1",
"'.	c #5757B3",
").	c #1C9C7A",
"!.	c #4F4FF9",
"~.	c #0606E8",
"{.	c #0E4DB1",
"].	c #1414EC",
"^.	c #0C8C76",
"/.	c #1E1EEE",
"(.	c #969679",
"_.	c #474779",
":.	c #5252FA",
"<.	c #0B4AB0",
"[.	c #2121EF",
"}.	c #989879",
"|.	c #898979",
"1.	c #5555FB",
"2.	c #058474",
"3.	c #078775",
"4.	c #078675",
"5.	c #0D8C76",
"6.	c #129177",
"7.	c #9D9D3C",
"8.	c #3232F3",
"9.	c #2B2BF1",
"0.	c #4040F6",
"a.	c #5757FB",
"b.	c #0D4CB0",
"c.	c #1B1BED",
"d.	c #0F8F77",
"e.	c #767678",
"f.	c #3E3E3D",
"g.	c #3E3EF5",
"h.	c #42423E",
"i.	c #A7A77C",
"j.	c #5A5AFC",
"k.	c #0D4DB0",
"l.	c #2C2CF1",
"m.	c #91D100",
"n.	c #C4C43E",
"o.	c #29A97D",
"p.	c #5D5DFD",
"q.	c #0544AE",
"r.	c #7D7D7A",
"s.	c #4282BD",
"t.	c #5F5FFD",
"u.	c #6363FE",
". + + + @ @ @ + + + + + + + # # $ % ",
"+ & * = - - - ; > > > > , ' ) ! ~ { ",
"+ * ] ^ / ( / ^ _ : : ! < [ } | 1 2 ",
"+ 3 ^ 4 5 6 7 8 / 9 < ! 0 ~ a b c d ",
"+ ] e f f f f f f g h ! i j k l m n ",
"+ - - - - - - - - - o ! p q 5 r s t ",
"+ u v w w w w w e x y z A B c C D E ",
"+ > F G o < H I - J K = = = L M N O ",
"+ P - ] Q R S - ^ T - ^ x ^ - U V W ",
"+ > X - - - - x Y - Z `  ...+.^ @.#.",
"+ > $.~ %.&.*.=.= x -.;.M >.,.'.).!.",
"+ > ~.a {.].^./.- (._.= = = = = = :.",
"+ , < 0 <.p A [.- }.|.x x x x ^ ^ 1.",
"+ ' 2.3.4.5.B 6.- 7.8.9.d 0.E ] x a.",
"# ) a 5 b.c.d.;.e.- f./.g.E h.- i.j.",
"# ! | b k.r C M l.m.- = = = - n.o.p.",
"$ q.1 c m s D N C C r.- ^ x i.o.s.t.",
"% { 2 d n t E O W #.!.:.1.a.j.p.t.u."};
